<?xml version="1.0" encoding="UTF-8" standalone="no"?>
<svg
   width="31"
   height="45"
   viewBox="0 0 31 45"
   fill="none"
   version="1.1"
   id="svg1"
   sodipodi:docname="castle.svg"
   xml:space="preserve"
   inkscape:version="1.4 (86a8ad7, 2024-10-11)"
   xmlns:inkscape="http://www.inkscape.org/namespaces/inkscape"
   xmlns:sodipodi="http://sodipodi.sourceforge.net/DTD/sodipodi-0.dtd"
   xmlns="http://www.w3.org/2000/svg"
   xmlns:svg="http://www.w3.org/2000/svg"><defs
     id="defs1" /><sodipodi:namedview
     id="namedview1"
     pagecolor="#ffffff"
     bordercolor="#000000"
     borderopacity="0.25"
     inkscape:showpageshadow="2"
     inkscape:pageopacity="0.0"
     inkscape:pagecheckerboard="0"
     inkscape:deskcolor="#d1d1d1"
     inkscape:zoom="12.138666"
     inkscape:cx="-9.6386206"
     inkscape:cy="10.750769"
     inkscape:window-width="2560"
     inkscape:window-height="1351"
     inkscape:window-x="1911"
     inkscape:window-y="139"
     inkscape:window-maximized="1"
     inkscape:current-layer="svg1" /><path
     d="M 6.30435,12.533393 H 2 c -0.55228,0 -1,0.44772 -1,1 v 13.5 c 0,0.5523 0.44772,1 1,1 h 3.06 v 13.5 c 0,1.1046 0.89543,2 2,2 h 16.88 c 1.1046,0 2,-0.8954 2,-2 v -13.5 H 29 c 0.5523,0 1,-0.4477 1,-1 v -13.5 c 0,-0.55228 -0.4477,-1 -1,-1 h -3.8841 c -0.5522,0 -1,0.44771 -1,1 v 5.25532 c 0,0.55228 -0.4477,1 -1,1 h -3.4637 c -0.5523,0 -1,-0.44772 -1,-1 v -5.25532 c 0,-0.55228 -0.4477,-1 -1,-1 h -3.8841 c -0.5523,0 -1,0.44771 -1,1 v 5.25532 c 0,0.55228 -0.4477,1 -1,1 H 8.30435 c -0.55229,0 -1,-0.44772 -1,-1 v -5.25532 c 0,-0.55228 -0.44772,-1 -1,-1 z"
     fill="#333438"
     stroke="#333438"
     id="path1" /><g
     style="fill:none"
     id="g1"
     transform="translate(12.074085,0.3631951)"><path
       d="M 1,8.23062 V 1.76938 C 1,1.40755 1.37243,1.16552 1.70307,1.31248 L 8.97196,4.5431 c 0.39591,0.17596 0.39591,0.73785 0,0.91381 L 1.70307,8.68753 C 1.37243,8.83448 1,8.59245 1,8.23062 Z"
       fill="#eb0045"
       stroke="#eb0045"
       id="path1-8" /></g></svg>
